<?xml version="1.0" encoding="UTF-8"?>
<svg xmlns="http://www.w3.org/2000/svg" width="512" height="512" viewBox="0 0 512 512" fill="none">
  <path d="M93.965 158.23C137.403 156.435 127.738 181.538 127.738 181.538C127.738 181.538 97.2405 191.959 93.965 158.23Z" fill="#FF9933"></path>
  <path d="M396.87 339.186C364.051 361.387 351.804 336.975 351.804 336.975C351.804 336.975 367.597 314.167 396.87 339.186Z" fill="#FF9933"></path>
  <path d="M228.671 84.4384C269.241 96.6402 247.198 116.46 247.198 116.46C247.198 116.46 213.887 116.25 228.671 84.4384Z" fill="#FF9933"></path>
  <path d="M319.358 8.68604C345.919 35.4743 313.857 43.5387 313.857 43.5387C313.857 43.5387 285.51 29.9308 319.358 8.68604Z" fill="#FF9933"></path>
  <path d="M249.669 39.0215C289.954 51.7808 267.464 71.2944 267.464 71.2944C267.464 71.2944 234.162 70.6246 249.669 39.0215Z" fill="#FF9933"></path>
  <path d="M425.56 112.071C445.133 142.279 411.689 145.487 411.689 145.487C411.689 145.487 387.159 127.96 425.56 112.071Z" fill="#FF9933"></path>
  <path d="M47.945 167.679C84.8915 185.533 58.4947 201.821 58.4947 201.821C58.4947 201.821 25.8142 196.799 47.945 167.679Z" fill="#FF9933"></path>
  <path d="M166.937 50.8676C185.295 81.5335 151.739 83.9336 151.739 83.9336C151.739 83.9336 127.921 65.8224 166.937 50.8676Z" fill="#FF9933"></path>
  <path d="M389.552 32.8267C423.063 54.392 394.083 67.7639 394.083 67.7639C394.083 67.7639 362.572 59.3596 389.552 32.8267Z" fill="#FF9933"></path>
  <path d="M147.311 131.743C179.742 154.286 150.128 166.789 150.128 166.789C150.128 166.789 119.051 157.457 147.311 131.743Z" fill="#FF9933"></path>
  <path d="M93.09 65.2678C104.606 97.8866 71.0054 95.8961 71.0054 95.8961C71.0054 95.8961 51.4106 74.9466 93.09 65.2678Z" fill="#FF9933"></path>
  <path d="M100.884 335.262C124.482 306.847 144.967 327.653 144.967 327.653C144.967 327.653 137.941 352.975 100.884 335.262Z" fill="#FF9933"></path>
  <path d="M441.266 235.961C443.934 269.723 411.573 262.416 411.573 262.416C411.573 262.416 397.92 238.787 441.266 235.961Z" fill="#FF9933"></path>
  <path d="M45.2194 323.785C56.6697 291.152 84.2834 306.171 84.2834 306.171C84.2834 306.171 87.4276 331.96 45.2194 323.785Z" fill="#FF9933"></path>
  <path d="M34.4023 99.6263C77.705 102.835 63.3835 126.555 63.3835 126.555C63.3835 126.555 31.2413 133.362 34.4023 99.6263Z" fill="#FF9933"></path>
  <path d="M279.887 157.893C303.939 186.077 271.223 192.355 271.223 192.355C271.223 192.355 244.188 177.219 279.887 157.893Z" fill="#FF9933"></path>
  <path d="M295.517 204.156C320.4 231.901 287.879 238.765 287.879 238.765C287.879 238.765 260.402 224.119 295.517 204.156Z" fill="#FF9933"></path>
  <path d="M114.523 81.7744C154.083 95.8397 130.557 114.601 130.557 114.601C130.557 114.601 97.3213 112.842 114.523 81.7744Z" fill="#FF9933"></path>
  <path d="M466.428 93.7994C495.895 118.682 464.86 128.893 464.86 128.893C464.86 128.893 435.095 117.261 466.428 93.7994Z" fill="#FF9933"></path>
  <path d="M171.674 81.108C208.558 99.0387 182.106 115.273 182.106 115.273C182.106 115.273 149.443 110.182 171.674 81.108Z" fill="#FF9933"></path>
  <path d="M117.621 33.8787C149.676 56.7443 119.858 68.9498 119.858 68.9498C119.858 68.9498 88.9385 59.3086 117.621 33.8787Z" fill="#FF9933"></path>
  <path d="M205.212 7.08881C247.723 14.2601 229.891 36.4948 229.891 36.4948C229.891 36.4948 196.939 40.2965 205.212 7.08881Z" fill="#FF9933"></path>
  <path d="M263.701 0C299.42 19.3053 271.983 34.5186 271.983 34.5186C271.983 34.5186 239.676 28.1984 263.701 0Z" fill="#FF9933"></path>
  <path d="M185.811 232.908C227.015 243.752 206.081 264.286 206.081 264.286C206.081 264.286 172.788 265.182 185.811 232.908Z" fill="#FF9933"></path>
  <path d="M286.781 61.4824C327.101 74.1772 304.662 93.7267 304.662 93.7267C304.662 93.7267 271.359 93.1101 286.781 61.4824Z" fill="#FF9933"></path>
  <path d="M0.0412712 195.337C43.4794 197.131 30.4483 221.297 30.4483 221.297C30.4483 221.297 -1.29897 229.146 0.0412712 195.337Z" fill="#FF9933"></path>
  <path d="M48.3336 215.128C91.1306 221.181 74.2741 243.871 74.2741 243.871C74.2741 243.871 41.5053 248.534 48.3336 215.128Z" fill="#FF9933"></path>
  <path d="M338.986 354.056C338.925 387.882 307.217 379.01 307.217 379.01C307.217 379.01 295.498 354.762 338.986 354.056Z" fill="#FF9933"></path>
  <path d="M509.569 156.633C521.156 189.237 487.552 187.291 487.552 187.291C487.552 187.291 467.912 166.367 509.569 156.633Z" fill="#FF9933"></path>
  <path d="M93.0327 190.581C135.621 197.467 118.036 219.821 118.036 219.821C118.036 219.821 85.1278 223.843 93.0327 190.581Z" fill="#FF9933"></path>
  <path d="M360.681 191.333C362.641 225.125 330.438 217.408 330.438 217.408C330.438 217.408 317.281 193.609 360.681 191.333Z" fill="#FF9933"></path>
  <path d="M151.318 351.78C191.819 339.441 192.81 365.634 192.81 365.634C192.81 365.634 168.082 382.992 151.318 351.78Z" fill="#FF9933"></path>
  <path d="M100 113.992C113.522 146.143 79.8378 145.412 79.8378 145.412C79.8378 145.412 58.9689 125.221 100 113.992Z" fill="#FF9933"></path>
  <path d="M339.367 33.9122C377.638 49.9912 352.56 67.4943 352.56 67.4943C352.56 67.4943 319.548 64.0222 339.367 33.9122Z" fill="#FF9933"></path>
  <path d="M327.007 145.026C353.512 171.847 321.433 179.871 321.433 179.871C321.433 179.871 293.114 166.228 327.007 145.026Z" fill="#FF9933"></path>
  <path d="M106.984 232.744C130.097 261.4 97.1843 267.022 97.1843 267.022C97.1843 267.022 70.6583 251.352 106.984 232.744Z" fill="#FF9933"></path>
  <path d="M21.4148 133.603C58.8282 150.859 32.8705 167.569 32.8705 167.569C32.8705 167.569 0.0628605 163.073 21.4148 133.603Z" fill="#FF9933"></path>
  <path d="M413.054 68.6831C456.538 69.5705 444.346 93.9995 444.346 93.9995C444.346 93.9995 412.881 102.508 413.054 68.6831Z" fill="#FF9933"></path>
  <path d="M162.986 13.8517C200.076 31.5239 173.813 47.9419 173.813 47.9419C173.813 47.9419 141.092 43.08 162.986 13.8517Z" fill="#FF9933"></path>
  <path d="M446.778 321.046C412.377 341.749 401.948 316.831 401.948 316.831C401.948 316.831 419.396 294.764 446.778 321.046Z" fill="#FF9933"></path>
  <path d="M156.172 184.234C195.973 197.882 172.775 216.888 172.775 216.888C172.775 216.888 139.512 215.48 156.172 184.234Z" fill="#FF9933"></path>
  <path d="M470.446 246.514C510.024 260.549 486.521 279.328 486.521 279.328C486.521 279.328 453.283 277.595 470.446 246.514Z" fill="#FF9933"></path>
  <path d="M370.157 120.016C391.997 149.27 358.856 154.013 358.856 154.013C358.856 154.013 333.034 137.646 370.157 120.016Z" fill="#FF9933"></path>
  <path d="M497.925 202.961C512.347 234.874 478.65 234.716 478.65 234.716C478.65 234.716 457.219 214.884 497.925 202.961Z" fill="#FF9933"></path>
  <path d="M292.753 112.355C311.589 142.845 278.073 145.563 278.073 145.563C278.073 145.563 253.973 127.678 292.753 112.355Z" fill="#FF9933"></path>
  <path d="M401.78 160.77C426.527 188.588 393.972 195.355 393.972 195.355C393.972 195.355 366.567 180.628 401.78 160.77Z" fill="#FF9933"></path>
  <path d="M193.595 51.1074C237.063 52.3791 224.515 76.6986 224.515 76.6986C224.515 76.6986 192.928 84.9284 193.595 51.1074Z" fill="#FF9933"></path>
  <path d="M21.7698 237.19C63.2475 247.382 42.8523 268.242 42.8523 268.242C42.8523 268.242 9.58942 269.662 21.7698 237.19Z" fill="#FF9933"></path>
  <path d="M374.805 74.8375C408.062 96.6414 378.925 109.805 378.925 109.805C378.925 109.805 347.515 101.177 374.805 74.8375Z" fill="#FF9933"></path>
  <path d="M322.363 89.1078C360.187 105.814 334.637 122.9 334.637 122.9C334.637 122.9 301.727 118.885 322.363 89.1078Z" fill="#FF9933"></path>
  <path d="M399.337 275.428C345.537 268.604 324.743 293.191 324.319 286.689C331.232 254.356 382.491 241.992 410.462 226.305C445.191 206.827 467.099 173.914 466.906 141.507C466.906 141.507 457.308 209.651 347.443 238.275C291.443 252.864 301.696 302.838 252.126 321.715C265.967 294.863 266.92 275.012 255.265 243.601C244.889 215.637 207.748 169.798 235.65 137.493C235.002 133.935 206.308 154.872 212.252 181.378C212.493 185.788 177.021 160.042 189.761 126.35C185.347 133.086 167.654 151.062 180.781 176.027C203.784 219.773 281.591 261.049 219.308 334.143C202.185 270.897 148.924 266.13 142.188 224.79C132.114 242.499 140.543 260.245 170.079 289.537C88.7468 263.906 32.9534 292.243 30.4714 297.284C109.807 276.761 214.411 301.694 221.97 402.063C223.813 426.534 224.928 451.228 223.073 475.946L283.101 475.354C275.199 431.804 267.464 385.891 294.795 344.893C329.629 292.64 407.827 274.621 459.655 302.897C444.902 288.449 423.181 278.452 399.337 275.428Z" fill="#FF9933"></path>
  <path d="M131.697 477.279C151.959 469.098 172.22 465.023 192.482 461.89C212.744 459.009 233.005 457.668 253.267 457.646C273.53 457.614 293.791 458.959 314.053 461.837C334.315 464.948 354.577 469.051 374.838 477.279H131.697Z" fill="#FF9933"></path>
  <path d="M252.052 505.97C243.761 505.723 235.644 504.964 227.798 504.231L225.789 504.043C217.604 503.283 211.8 500.999 207.137 499.164C205.259 498.425 203.637 497.788 202.266 497.419C197.741 496.202 189.896 495.502 180.742 495.502C179.833 495.502 178.906 495.51 177.967 495.523C171.559 495.617 165.241 496.889 159.132 498.12C155.089 498.934 151.271 499.703 147.392 500.164C145.451 500.395 143.658 500.506 141.906 500.506C136.714 500.506 133.146 499.514 129.997 498.637C128.387 498.189 126.997 497.802 125.365 497.536C117.425 496.241 109.214 494.901 106.477 489.094C105.986 488.051 104.679 485.28 106.532 482.403C106.691 482.157 106.862 481.926 107.043 481.709C102.998 479.688 98.7954 477.092 95.1102 474.28C87.135 468.193 84.7176 458.317 88.951 449.122C92.3647 441.709 99.2113 434.982 107.265 431.128C113.64 428.077 126.861 424.306 135.001 423.216L137.753 422.86C143.362 422.146 148.66 421.472 161.878 418.117C165.96 417.082 168.788 416.03 170.721 415.127C167.229 412.552 162.974 409.247 160.188 406.502C155.168 401.558 149.848 396.04 144.841 387.79C139.731 379.369 139.533 375.308 139.814 370.073C139.986 366.864 141.155 361.958 142.285 357.214C142.767 355.191 143.224 353.28 143.534 351.748C143.901 349.943 144.25 347.702 144.633 345.256C145.289 341.074 146.031 336.335 147.1 331.958C148.664 325.548 152.815 303.305 154.297 294.617L154.695 292.252C155.906 284.984 156.707 280.18 160.641 274.43C165.476 267.368 177.63 263.182 187.395 259.82L187.79 259.684C191.126 258.535 195.955 257.235 201.068 255.858C203.46 255.214 206.673 254.349 209.816 253.449C209.269 253.103 208.767 252.711 208.315 252.275C205.101 249.167 205.734 245.252 206.489 242.576C207.33 239.592 208.047 234.258 207.748 229.066C207.491 224.612 206.772 223.254 202.843 217.626C196.872 209.073 196.699 201.688 202.384 197.872C202.814 197.582 203.265 197.318 203.732 197.075C203.491 196.331 203.22 195.504 202.919 194.592C200.342 186.798 201.164 177.047 205.015 169.748C208.38 163.372 216.907 159.001 221.852 156.91C222.827 154.884 224.636 152.288 227.972 149.37C229.045 148.431 230.205 147.616 231.4 146.908C229.812 144.451 228.952 141.709 228.952 138.868C228.952 134.255 231.285 129.876 235.246 126.593C234.585 125.124 234.237 123.564 234.237 121.973C234.237 118.38 236.03 114.965 239.112 112.402C239.093 111.959 239.082 111.515 239.082 111.071C239.082 102.771 245.518 96.3865 246.252 95.6861L250.056 92.0523L252.192 89.9034L258.446 95.6861C259.18 96.3869 265.616 102.771 265.616 111.071C265.616 111.516 265.606 111.96 265.585 112.402C268.668 114.964 270.46 118.379 270.46 121.973C270.46 123.565 270.113 125.125 269.452 126.592C273.413 129.876 275.745 134.255 275.745 138.868C275.745 141.707 274.886 144.451 273.297 146.908C274.495 147.615 275.655 148.431 276.727 149.37C280.063 152.288 281.87 154.884 282.846 156.91C287.791 159.001 296.318 163.372 299.682 169.748C303.533 177.049 304.357 186.802 301.779 194.593C301.477 195.506 301.206 196.331 300.964 197.075C301.435 197.318 301.886 197.585 302.316 197.875C308 201.687 307.828 209.073 301.856 217.627C297.927 223.252 297.208 224.611 296.951 229.066C296.65 234.26 297.369 239.592 298.211 242.574C298.934 245.144 299.545 248.853 296.758 251.892C298.299 252.167 300.175 252.415 302.054 252.668C308.488 253.534 312.256 254.101 314.896 255.682C317.099 256.997 318.628 258.634 319.479 260.571C328.807 263.81 339.578 267.884 344.056 274.431C347.992 280.181 348.793 284.984 350.003 292.254L350.4 294.616C351.884 303.319 356.04 325.571 357.598 331.959C358.667 336.333 359.41 341.071 360.065 345.251C360.448 347.7 360.796 349.943 361.164 351.749C361.476 353.284 361.933 355.198 362.415 357.223C363.544 361.964 364.713 366.867 364.885 370.075C365.164 375.308 364.968 379.369 359.857 387.79C354.851 396.04 349.531 401.558 344.511 406.502C341.724 409.247 337.471 412.552 333.977 415.127C335.911 416.03 338.738 417.082 342.82 418.117C356.036 421.472 361.334 422.146 366.944 422.86L369.696 423.216C377.837 424.305 391.057 428.077 397.435 431.129C405.487 434.982 412.335 441.709 415.747 449.122C419.98 458.318 417.562 468.193 409.588 474.28C405.903 477.092 401.702 479.688 397.656 481.709C397.838 481.926 398.008 482.157 398.166 482.402C400.019 485.279 398.712 488.051 398.221 489.095C395.484 494.901 387.274 496.241 379.333 497.536C377.701 497.802 376.311 498.189 374.702 498.637C371.553 499.514 367.985 500.506 362.793 500.506C361.04 500.506 359.247 500.395 357.308 500.164C353.428 499.703 349.609 498.934 345.565 498.12C339.457 496.889 333.139 495.617 326.732 495.523C325.791 495.51 324.866 495.502 323.955 495.502C314.802 495.502 306.958 496.202 302.43 497.419C301.061 497.788 299.438 498.425 297.562 499.164C292.898 500.998 287.094 503.283 278.909 504.043L276.909 504.23C269.059 504.964 260.941 505.724 252.646 505.971L252.349 505.979L252.052 505.97ZM308.599 343.291C306.746 349.758 305.537 356.745 306.344 362.673C307.218 369.099 309.126 374.667 311.117 379.054C311.657 377.891 312.22 376.713 312.86 375.507C314.502 372.418 316.089 369.788 317.178 368.054C315.641 363.808 312.262 354.389 309.731 346.775C309.361 345.657 308.98 344.488 308.599 343.291ZM186.463 368.055C187.553 369.786 189.142 372.418 190.782 375.507C190.878 375.688 190.973 375.869 191.065 376.048C191.385 375.029 191.817 373.83 192.358 372.348C193.221 369.986 194.198 367.31 194.605 365.3C195.276 361.998 196.22 359.307 197.472 357.139C197.277 352.64 196.306 347.867 195.022 343.35C194.649 344.527 194.276 345.677 193.91 346.775C191.381 354.389 188 363.809 186.463 368.055Z" fill="url(#paint0_linear_90_4562)"></path>
  <path d="M252.448 99.485C252.448 99.485 257.88 104.673 257.88 111.072C257.88 112.468 257.758 113.802 257.546 115.042C260.637 116.419 262.724 119.005 262.724 121.974C262.724 124.408 261.32 126.585 259.113 128.051C264.367 129.975 268.009 134.09 268.009 138.87C268.009 143.044 265.236 146.716 261.034 148.863C264.026 149.514 268.022 150.811 270.945 153.368C276.23 157.992 276.23 161.074 276.23 161.074C276.23 161.074 289.002 165.355 292.525 172.034C296.049 178.711 296.269 187.102 294.287 193.096C292.305 199.089 291.644 201.486 291.644 201.486C291.644 201.486 292.311 201.343 293.267 201.343C294.402 201.343 295.945 201.544 297.26 202.428C299.682 204.054 299.242 208.764 295.058 214.757C290.874 220.75 289.552 223.062 289.222 228.798C288.893 234.535 289.663 240.357 290.653 243.867C291.552 247.05 291.184 249.247 287.989 249.247C287.66 249.247 287.301 249.224 286.91 249.176C282.726 248.662 282.396 242.669 282.286 238.731C282.176 234.792 281.845 229.655 281.845 229.655C281.845 229.655 281.405 233.594 275.459 239.073C275.459 239.073 274.469 250.632 278.762 254.057C279.463 254.615 280.669 255.209 282.176 255.823C282.588 255.046 283.084 254.401 283.607 254.401C284.928 254.401 289.772 256.798 294.764 257.711C299.755 258.624 308.27 259.309 310.179 260.451C311.676 261.347 312.614 262.472 312.531 264.781C312.96 264.919 313.396 265.057 313.776 265.187C322.474 268.184 333.594 271.951 337.227 277.26C340.861 282.567 341.301 287.02 342.733 295.41C344.164 303.801 348.349 326.319 350 333.083C351.651 339.847 352.532 347.809 353.523 352.689C354.514 357.569 356.936 366.217 357.156 370.327C357.376 374.436 357.486 377.604 352.862 385.224C348.237 392.845 343.392 397.896 338.439 402.777C333.485 407.657 322.914 414.849 322.914 414.849C322.914 414.849 324.565 419.815 340.42 423.839C356.275 427.863 361.339 428.206 368.387 429.147C375.433 430.089 387.655 433.513 393.38 436.254C399.105 438.994 405.271 444.216 408.464 451.151C411.657 458.087 410.115 465.45 404.17 469.988C398.224 474.526 391.068 478.207 386.443 479.491C381.819 480.775 381.819 480.775 381.819 480.775C381.819 480.775 382.7 482.574 386.773 483.601C390.847 484.629 392.168 484.457 390.957 487.026C389.746 489.595 384.571 490.536 377.746 491.65C372.091 492.572 369.006 494.492 362.794 494.492C361.507 494.492 360.084 494.409 358.478 494.218C349.119 493.105 338.549 489.68 326.878 489.508C325.892 489.494 324.921 489.487 323.966 489.487C313.616 489.487 305.145 490.324 299.902 491.735C294.177 493.276 288.122 497.129 277.992 498.07C269.543 498.856 261.016 499.701 252.349 499.96C243.682 499.701 235.157 498.856 226.707 498.07C216.577 497.129 210.522 493.276 204.797 491.735C199.555 490.324 191.084 489.487 180.733 489.487C179.779 489.487 178.806 489.494 177.821 489.508C166.151 489.68 155.581 493.105 146.222 494.218C144.615 494.409 143.193 494.492 141.905 494.492C135.695 494.492 132.608 492.571 126.954 491.65C120.128 490.537 114.952 489.595 113.742 487.026C112.53 484.457 113.852 484.629 117.925 483.601C122 482.574 122.88 480.775 122.88 480.775C122.88 480.775 122.88 480.775 118.256 479.491C113.632 478.207 106.475 474.526 100.53 469.988C94.5836 465.45 93.0427 458.087 96.2352 451.151C99.4283 444.216 105.594 438.994 111.319 436.254C117.045 433.514 129.265 430.089 136.313 429.147C143.359 428.206 148.424 427.863 164.278 423.839C180.134 419.815 181.785 414.849 181.785 414.849C181.785 414.849 171.215 407.657 166.261 402.777C161.306 397.896 156.462 392.845 151.837 385.224C147.213 377.604 147.323 374.436 147.543 370.327C147.764 366.217 150.185 357.569 151.177 352.689C152.167 347.809 153.049 339.846 154.7 333.083C156.351 326.319 160.535 303.801 161.966 295.41C163.398 287.02 163.838 282.567 167.471 277.26C171.105 271.951 182.226 268.184 190.923 265.187C199.621 262.191 221.642 257.481 225.936 254.057C230.231 250.632 229.239 239.074 229.239 239.074C223.294 233.594 222.854 229.655 222.854 229.655C222.854 229.655 222.523 234.793 222.412 238.731C222.303 242.67 221.972 248.663 217.789 249.176C217.398 249.225 217.039 249.247 216.71 249.247C213.515 249.247 213.146 247.05 214.045 243.867C215.036 240.357 215.807 234.535 215.476 228.799C215.147 223.062 213.825 220.751 209.641 214.757C205.457 208.764 205.017 204.055 207.439 202.428C208.754 201.545 210.296 201.343 211.43 201.343C212.386 201.343 213.054 201.486 213.054 201.486C213.054 201.486 212.393 199.089 210.412 193.096C208.43 187.103 208.65 178.712 212.173 172.034C215.696 165.355 228.468 161.074 228.468 161.074C228.468 161.074 228.468 157.992 233.753 153.369C236.677 150.812 240.672 149.515 243.665 148.864C239.463 146.717 236.689 143.045 236.689 138.87C236.689 134.09 240.331 129.975 245.586 128.051C243.378 126.585 241.974 124.409 241.974 121.975C241.974 119.006 244.062 116.42 247.152 115.042C246.94 113.802 246.818 112.469 246.818 111.072C246.818 104.673 252.251 99.4854 252.251 99.4854C252.251 99.4854 252.285 99.518 252.349 99.5822C252.413 99.5176 252.448 99.485 252.448 99.485ZM310.908 392.987C316.047 387.736 317.221 383.056 320.011 377.804C322.8 372.553 325.442 368.672 325.442 368.672C325.442 368.672 320.598 355.429 317.221 345.27C313.845 335.109 309.734 320.269 309.734 320.269C309.734 320.269 296.228 345.498 298.651 363.307C301.072 381.115 310.908 392.987 310.908 392.987ZM192.734 392.987C192.734 392.987 195.862 389.21 199.024 382.723C198.3 381.663 198.138 380.432 198.138 379.514C198.138 377.547 201.3 370.909 202.248 366.238C202.824 363.402 203.758 360.49 205.245 358.518C205.138 341.302 193.908 320.269 193.908 320.269C193.908 320.269 189.797 335.109 186.421 345.27C183.045 355.43 178.2 368.672 178.2 368.672C178.2 368.672 180.842 372.553 183.632 377.804C186.421 383.056 187.596 387.736 192.734 392.987ZM252.438 80.4194L252.349 80.5043L252.26 80.4194L240.252 91.8873C238.804 93.2709 231.726 100.518 231.36 110.287C228.256 113.643 226.501 117.721 226.501 121.974C226.501 123.044 226.61 124.103 226.825 125.143C223.251 129.107 221.216 133.884 221.216 138.869C221.216 141.057 221.597 143.2 222.327 145.253C222.281 145.293 222.235 145.332 222.19 145.372C219.192 147.995 217.16 150.471 215.788 152.672C209.791 155.474 201.596 160.379 197.857 167.466C193.514 175.698 192.489 186.173 195.106 195.069C188.674 201.039 188.946 210.333 196.042 220.497C199.716 225.759 199.838 226.2 200.018 229.336C200.284 233.958 199.641 238.772 198.931 241.287C198.009 244.552 197.922 247.51 198.666 250.139C198.623 250.151 198.581 250.162 198.539 250.173C193.267 251.592 188.288 252.933 184.655 254.185L184.256 254.323C173.405 258.06 159.9 262.711 153.812 271.604C149.215 278.321 148.246 284.129 147.021 291.481L146.627 293.827C145.153 302.469 141.036 324.537 139.497 330.838C138.381 335.41 137.623 340.255 136.953 344.529C136.581 346.91 136.228 349.158 135.892 350.812C135.591 352.297 135.146 354.151 134.678 356.113C133.498 361.066 132.278 366.187 132.082 369.825C131.774 375.572 132.002 380.734 137.842 390.358C143.195 399.179 148.817 405.012 154.115 410.231C155.015 411.118 156.04 412.048 157.132 412.987C146.206 415.689 141.685 416.264 136.503 416.924C135.581 417.041 134.653 417.159 133.69 417.288C124.466 418.52 110.506 422.513 103.208 426.005C93.5642 430.62 85.7118 438.307 81.6669 447.094C76.4188 458.493 79.5683 470.849 89.6905 478.574C92.2859 480.556 95.0882 482.425 97.9394 484.1C97.6248 486.336 98.0497 488.699 99.2135 491.166C103.426 500.106 115.189 502.024 123.778 503.424C124.889 503.605 125.993 503.913 127.39 504.301C130.758 505.239 135.37 506.523 141.904 506.523C144.052 506.523 146.229 506.387 148.56 506.11C152.829 505.603 157.02 504.759 161.074 503.943C167.011 502.747 172.618 501.618 178.113 501.537C178.998 501.524 179.873 501.518 180.732 501.518C190.398 501.518 196.886 502.337 199.735 503.104C200.611 503.34 202.083 503.919 203.643 504.532C208.575 506.472 215.329 509.13 224.87 510.017L226.893 510.206C234.888 510.953 243.155 511.726 251.756 511.982L252.349 512L252.942 511.982C261.543 511.726 269.81 510.953 277.805 510.206L279.829 510.017C289.368 509.13 296.123 506.473 301.055 504.533C302.614 503.919 304.086 503.34 304.963 503.104C307.811 502.338 314.299 501.518 323.965 501.518C324.824 501.518 325.698 501.525 326.584 501.538C332.079 501.619 337.686 502.748 343.623 503.944C347.676 504.759 351.867 505.603 356.137 506.111C358.468 506.388 360.646 506.523 362.793 506.523C369.327 506.523 373.939 505.24 377.307 504.302C378.704 503.913 379.807 503.606 380.919 503.425C389.507 502.024 401.269 500.107 405.484 491.167C406.648 488.699 407.072 486.336 406.757 484.101C409.609 482.425 412.411 480.556 415.007 478.574C425.129 470.849 428.278 458.493 423.03 447.095C418.985 438.308 411.132 430.621 401.488 426.006C394.19 422.514 380.23 418.521 371.006 417.289C370.043 417.16 369.116 417.042 368.194 416.925C363.012 416.265 358.491 415.69 347.564 412.988C348.657 412.048 349.681 411.119 350.583 410.232C355.881 405.011 361.503 399.177 366.854 390.359C372.693 380.736 372.922 375.574 372.615 369.826C372.419 366.188 371.199 361.066 370.019 356.114C369.551 354.152 369.107 352.298 368.805 350.812C368.47 349.159 368.117 346.911 367.744 344.53C367.075 340.256 366.316 335.411 365.2 330.839C363.661 324.538 359.544 302.471 358.07 293.828L357.676 291.483C356.45 284.13 355.482 278.323 350.884 271.606C345.686 264.012 335.077 259.51 325.332 256.03C323.946 254.082 322.031 252.362 319.612 250.915C316.021 248.768 311.735 247.921 306.51 247.174C306.602 245.342 306.355 243.379 305.765 241.289C305.055 238.774 304.411 233.96 304.678 229.337C304.858 226.202 304.98 225.761 308.654 220.499C315.75 210.335 316.024 201.041 309.59 195.071C312.208 186.175 311.183 175.7 306.838 167.467C303.1 160.381 294.905 155.476 288.908 152.674C287.536 150.473 285.505 147.997 282.508 145.375C282.462 145.335 282.416 145.295 282.369 145.255C283.098 143.202 283.48 141.058 283.48 138.871C283.48 133.886 281.445 129.108 277.871 125.144C278.085 124.104 278.194 123.045 278.194 121.975C278.194 117.722 276.439 113.644 273.336 110.288C272.97 100.52 265.893 93.2726 264.444 91.8885L252.438 80.4194Z" fill="#FAF3E0"></path>
  <defs>
    <linearGradient id="paint0_linear_90_4562" x1="86.8933" y1="297.941" x2="417.813" y2="295.748" gradientUnits="userSpaceOnUse">
      <stop stop-color="#D4AF37"></stop>
      <stop offset="1" stop-color="#FF9933"></stop>
    </linearGradient>
  </defs>
</svg>
