<svg xmlns="http://www.w3.org/2000/svg" width="60" height="60" viewBox="0 0 60 60" fill="none"><rect width="60" height="60" rx="30" fill="url(#paint0_linear_62_669)"></rect><path fill-rule="evenodd" clip-rule="evenodd" d="M29.144 15.7352C28.356 16.5921 27.4942 17.7406 26.7358 18.9448C26.2032 19.7905 25.1 21.9597 25.1 22.1612C25.1 22.2186 25.516 22.6076 26.0242 23.0256C27.1489 23.9505 28.54 25.3879 29.3305 26.4423C29.6534 26.8729 29.9506 27.2253 29.9909 27.2253C30.0313 27.2253 30.3292 26.8716 30.653 26.4393C31.4263 25.4068 32.9482 23.8346 34.0181 22.9628L34.8751 22.2646L34.629 21.6886C34.2315 20.7584 33.1873 18.9634 32.4122 17.8775C31.7231 16.9124 30.0498 15 29.8944 15C29.8536 15 29.5159 15.3309 29.144 15.7352ZM15.6327 22.2493C15.2713 24.0475 15.211 24.5718 15.1531 26.4171C15.0443 29.8806 15.6157 32.8211 16.9196 35.5091C18.5803 38.9328 20.9979 41.4297 24.3077 43.1397C25.1967 43.599 26.9122 44.3004 27.1466 44.3004C27.1877 44.3004 27.1186 43.789 26.9933 43.1637C26.6445 41.4243 26.5381 40.0522 26.5933 38.0092C26.6629 35.436 27.032 33.5916 27.96 31.1813C28.4305 29.9591 28.4618 30.101 27.3964 28.613C25.3653 25.7757 22.5178 23.5989 18.9375 22.1462C18.0578 21.7892 16.1164 21.1632 15.8893 21.1632C15.8682 21.1632 15.7528 21.652 15.6327 22.2493ZM42.8541 21.5038C37.5612 23.1123 33.3911 26.4901 31.1756 30.9637C29.8055 33.7303 29.3339 35.9921 29.4329 39.3233C29.4907 41.2704 29.7155 42.7584 30.1772 44.2499C30.3605 44.8417 30.3726 44.8555 30.6914 44.8295C31.2515 44.7841 33.013 44.2978 33.9432 43.9319C40.1467 41.4918 44.0313 36.2206 44.7729 29.2364C44.9099 27.9459 44.8316 25.1363 44.6196 23.7396C44.3827 22.1785 44.1518 21.1625 44.0357 21.17C43.9776 21.1737 43.4459 21.3239 42.8541 21.5038ZM8.07963 29.0542C7.17119 29.1623 5.19868 29.5535 5.03464 29.6583C4.87314 29.7613 5.2965 31.4069 5.88625 32.9678C7.41554 37.0155 9.70684 40.0493 12.92 42.2806C15.1176 43.8066 18.0646 44.833 20.6405 44.9693C21.7647 45.0288 21.7825 45.1028 20.438 44.1281C16.0117 40.9192 13.1619 35.8806 12.4492 30.0038L12.3266 28.9935L10.57 28.9802C9.60374 28.973 8.48313 29.0062 8.07963 29.0542ZM47.6518 29.0692C47.6307 29.1388 47.5858 29.4911 47.5519 29.8523C47.5181 30.2135 47.3826 31.0646 47.2508 31.7436C46.274 36.7812 43.4888 41.2559 39.5439 44.1259C38.1984 45.1048 38.2137 45.0298 39.374 44.9625C45.2962 44.619 50.6399 40.6427 53.4624 34.4792C54.393 32.447 55.2054 29.8231 54.9536 29.6623C54.7705 29.5454 52.7912 29.1635 51.7555 29.0452C50.4409 28.895 47.6996 28.9111 47.6518 29.0692Z" fill="white"></path><defs><linearGradient id="paint0_linear_62_669" x1="0" y1="30" x2="60" y2="29.5" gradientUnits="userSpaceOnUse"><stop stop-color="#D4AF37"></stop><stop offset="1" stop-color="#FF9933"></stop></linearGradient></defs></svg>