<svg xmlns="http://www.w3.org/2000/svg" width="60" height="60" viewBox="0 0 60 60" fill="none"><rect width="60" height="60" rx="30" fill="url(#paint0_linear_68_741)"></rect><path fill-rule="evenodd" clip-rule="evenodd" d="M22.2653 15.11C20.583 15.5803 19.486 17.0225 19.486 18.764C19.486 20.9095 21.1104 22.5354 23.2538 22.5354C24.3704 22.5354 25.2542 22.157 26.0103 21.3552C27.9888 19.257 26.9345 15.7265 24.1363 15.0795C23.655 14.9682 22.718 14.9835 22.2653 15.11ZM35.7618 15.1223C33.7846 15.6556 32.5827 17.7153 33.0959 19.691C33.3928 20.8346 34.0886 21.6776 35.1581 22.1898C35.7826 22.4889 35.8117 22.4944 36.775 22.4944C37.7383 22.4944 37.7674 22.4889 38.3919 22.1898C40.3151 21.2688 41.1038 19.0025 40.17 17.0809C39.8865 16.4976 39.1939 15.7678 38.6336 15.4619C37.8035 15.0088 36.6766 14.8755 35.7618 15.1223ZM29.7233 15.4055C29.4042 15.5341 29.3678 15.8119 29.3936 17.9262C29.4178 19.9159 29.4191 19.9274 29.611 20.0831C29.8611 20.2861 30.1194 20.2816 30.3879 20.0698L30.6033 19.8999V17.7801V15.6603L30.3879 15.4904C30.1557 15.3072 30.0127 15.2889 29.7233 15.4055ZM24.3333 16.4603C25.8892 17.2157 26.286 19.1896 25.1442 20.4938C24.4975 21.2325 23.2932 21.5095 22.3235 21.1426C21.077 20.6708 20.4045 19.2069 20.8423 17.9182C21.0707 17.2459 21.8225 16.5482 22.5923 16.2942C22.9629 16.1718 23.929 16.264 24.3333 16.4603ZM37.9366 16.5178C38.8386 16.9805 39.4244 18.0175 39.3256 18.9771C39.1918 20.277 38.2097 21.2083 36.8889 21.2879C36.34 21.3209 36.2083 21.2989 35.7662 21.0999C34.7661 20.6498 34.1439 19.6496 34.2234 18.6201C34.3658 16.7772 36.3036 15.6802 37.9366 16.5178ZM22.8558 16.9239C22.6977 17.0349 22.6741 17.1254 22.6741 17.6208V18.1901H22.1065C21.6126 18.1901 21.5224 18.2137 21.4117 18.3723C21.231 18.6309 21.2506 19.0358 21.4526 19.2191C21.5684 19.3243 21.7844 19.3821 22.1474 19.4054L22.6741 19.439V19.9497C22.6741 20.5491 22.811 20.7317 23.2605 20.7317C23.6695 20.7317 23.8415 20.5072 23.884 19.9179L23.9185 19.4382L24.403 19.4031C24.9831 19.361 25.2373 19.1627 25.226 18.7613C25.2138 18.3324 25.0151 18.1901 24.4285 18.1901H23.9193L23.8858 17.6618C23.8626 17.2977 23.8049 17.0811 23.7 16.9649C23.5173 16.7623 23.1136 16.7427 22.8558 16.9239ZM36.3254 16.9602C36.1954 17.0906 36.1619 17.2335 36.1619 17.6571V18.1901H35.6306C35.0198 18.1901 34.7723 18.353 34.7723 18.7549C34.7723 19.1847 35.0079 19.3653 35.6196 19.4044L36.1619 19.439V19.9031C36.1619 20.5194 36.3097 20.7317 36.7388 20.7317C37.2201 20.7317 37.3881 20.5219 37.3881 19.9213V19.439L37.9304 19.4044C38.3735 19.376 38.5005 19.3352 38.6252 19.1807C38.8241 18.9343 38.8184 18.6739 38.6083 18.4061C38.4567 18.2128 38.3838 18.1901 37.9135 18.1901H37.3881V17.6714C37.3881 17.2353 37.358 17.1245 37.1989 16.9745C36.9581 16.7476 36.5442 16.7408 36.3254 16.9602ZM16.5804 20.9329C16.1762 21.3383 16.2452 21.4527 17.8855 23.0979C19.3524 24.5691 19.3984 24.6067 19.6623 24.5538C20.0039 24.4853 20.1222 24.3666 20.1906 24.024C20.2433 23.7593 20.2058 23.7131 18.739 22.242C17.0986 20.5967 16.9846 20.5275 16.5804 20.9329ZM41.2939 22.1895C39.9419 23.5456 39.8404 23.6681 39.8404 23.9462C39.8404 24.1743 39.8934 24.2871 40.0639 24.4216C40.4734 24.7445 40.6484 24.6344 42.1906 23.0834C43.4723 21.7943 43.6006 21.6394 43.5995 21.3829C43.598 21.0546 43.5445 20.9552 43.2995 20.826C42.8992 20.6146 42.7904 20.6886 41.2939 22.1895ZM28.8205 22.2915C27.9819 22.5119 27.4658 22.815 26.7997 23.4783C25.8669 24.4073 25.4534 25.4066 25.4534 26.7318C25.4534 27.7553 25.759 28.7271 26.3148 29.4705L26.504 29.7235L26.1507 29.8957C25.6558 30.1369 24.7863 30.9776 24.348 31.6388C23.9414 32.2522 23.5736 33.0826 23.4152 33.7449L23.3128 34.173L21.5833 35.1696C20.6322 35.7177 19.7493 36.263 19.6215 36.3812C19.2107 36.7613 18.9663 37.3472 18.9674 37.9491C18.9687 38.576 19.112 38.9534 19.5213 39.4079C19.9802 39.9173 20.4514 40.1026 21.2008 40.0682C21.8145 40.0401 21.835 40.0317 23.1671 39.2696C23.9075 38.8461 24.596 38.4453 24.6972 38.3788L24.8812 38.2582V39.6579V41.0578L21.5092 41.0816C18.5137 41.1029 18.1088 41.1212 17.8826 41.2455C17.4524 41.4817 17.3607 41.8022 17.3607 43.0693C17.3607 44.2837 17.4207 44.5141 17.8197 44.8288L18.0367 45H30.0529H42.0691L42.3444 44.7072L42.6198 44.4144V43.0738C42.6198 41.7544 42.6164 41.7291 42.4102 41.4832C42.2948 41.3458 42.065 41.1956 41.8993 41.1495C41.7174 41.0988 40.3258 41.0653 38.3895 41.0651L35.181 41.0646V39.7118C35.181 38.9678 35.2041 38.359 35.2325 38.359C35.2608 38.359 35.7947 38.656 36.4189 39.0188C38.1813 40.0434 38.2689 40.0807 38.9166 40.0807C40.4593 40.0807 41.4421 38.6738 40.9373 37.1878C40.7318 36.5827 40.3317 36.2591 38.4493 35.1752L36.6933 34.1641L36.5536 33.5894C36.1904 32.0953 34.9477 30.4109 33.8074 29.8672L33.5375 29.7385L33.7111 29.4779C34.1289 28.8507 34.4482 28.0508 34.5441 27.3909C35.0195 24.1199 32.0229 21.45 28.8205 22.2915ZM30.8199 23.4696C31.7664 23.7224 32.579 24.3785 33.0153 25.2422L33.2341 25.6751L32.7063 25.6208C31.7668 25.5243 31.3568 25.3554 30.8713 24.8646C30.2855 24.2721 30.0576 24.2739 29.3523 24.8759C29.0031 25.1739 28.2144 25.4527 27.4153 25.5604C27.123 25.5998 26.8721 25.6214 26.8578 25.6085C26.8434 25.5954 26.9041 25.4429 26.9927 25.2694C27.7295 23.8266 29.333 23.0726 30.8199 23.4696ZM15.7666 24.435C13.2198 24.7315 11.7347 27.4627 12.839 29.8189C13.1236 30.426 13.986 31.2935 14.5813 31.5713C17.1652 32.7774 20.0628 30.9695 20.0573 28.1548C20.0553 27.136 19.6878 26.2544 18.9596 25.521C18.0978 24.6532 17.0255 24.2885 15.7666 24.435ZM43.193 24.4319C42.0313 24.5754 40.8803 25.4216 40.3588 26.5156C39.1029 29.1499 41.1181 32.1449 44.0094 31.941C45.1189 31.8628 46.033 31.3869 46.7279 30.5259C47.3381 29.7698 47.4795 29.3245 47.4817 28.1515C47.4835 27.212 47.4717 27.1427 47.2208 26.6112C46.713 25.536 45.5241 24.5911 44.5189 24.4637C44.3062 24.4368 44.0401 24.4038 43.9277 24.3905C43.8153 24.3772 43.4847 24.3959 43.193 24.4319ZM16.6687 25.6584C17.2895 25.7735 17.6457 25.9599 18.0732 26.3938C18.609 26.9375 18.7861 27.3733 18.7875 28.1515C18.7884 28.6483 18.7466 28.8994 18.6153 29.1864C18.3668 29.7293 17.9074 30.2024 17.3738 30.4652C16.7386 30.7781 15.8059 30.7878 15.1944 30.4877C14.6711 30.2309 14.1809 29.7379 13.9312 29.2174C13.6557 28.6429 13.6499 27.7507 13.9178 27.1501C14.2494 26.4068 15.0034 25.82 15.8408 25.6535C16.0248 25.6168 16.1778 25.5829 16.1808 25.578C16.1838 25.573 16.4033 25.6092 16.6687 25.6584ZM44.7898 25.8526C45.6982 26.2575 46.2174 27.0026 46.2807 27.992C46.3302 28.7657 46.158 29.2875 45.6755 29.8257C45.1399 30.4233 44.5419 30.6938 43.7642 30.6906C42.953 30.6873 42.4296 30.4564 41.8893 29.8634C40.7707 28.6358 41.084 26.7395 42.5365 25.9466C43.263 25.55 44.0384 25.5177 44.7898 25.8526ZM30.325 26.0696C30.6767 26.4596 31.6249 26.7691 32.7305 26.8546C33.1214 26.8848 33.3822 26.9412 33.3816 26.9954C33.3793 27.2057 33.1486 27.9326 32.9773 28.2685C32.6882 28.8358 32.0537 29.4512 31.4389 29.7607C30.9192 30.0223 30.8428 30.0373 30.0311 30.0373C29.2354 30.0373 29.1325 30.0182 28.6217 29.7755C27.9218 29.4429 27.3172 28.843 27.0028 28.1694C26.7182 27.5594 26.596 26.881 26.7706 26.8802C26.8329 26.88 27.2398 26.826 27.6749 26.7602C28.5867 26.6223 29.3434 26.3854 29.7724 26.1035C30.1436 25.8594 30.1359 25.8599 30.325 26.0696ZM15.9967 26.2254C15.7397 26.3293 15.644 26.5611 15.644 27.0803V27.5366H15.1499C14.7341 27.5366 14.6238 27.5686 14.455 27.7379C14.2098 27.9838 14.199 28.2639 14.4238 28.5504C14.5755 28.7437 14.6484 28.7665 15.1186 28.7665H15.644V29.2473C15.644 29.8538 15.8471 30.1602 16.2488 30.1602C16.678 30.1602 16.8702 29.8861 16.8702 29.2736V28.7665H17.3873C17.8221 28.7665 17.9326 28.7363 18.0821 28.5767C18.3179 28.3249 18.3087 27.9881 18.0592 27.7379C17.8904 27.5686 17.7801 27.5366 17.3643 27.5366H16.8702V27.041C16.8702 26.624 16.8383 26.5133 16.6695 26.3441C16.4597 26.1336 16.2956 26.1046 15.9967 26.2254ZM43.462 26.241C43.2433 26.3469 43.1102 26.7022 43.1102 27.1799V27.5366H42.6961C42.2877 27.5366 41.9822 27.639 41.8648 27.8154C41.8318 27.865 41.8043 28.0418 41.8035 28.2084C41.8019 28.616 42.0238 28.7665 42.6268 28.7665H43.0878L43.1319 29.3167C43.1814 29.9357 43.3522 30.1602 43.7733 30.1602C44.174 30.1602 44.3364 29.912 44.3364 29.2994V28.7665H44.8677C45.5013 28.7665 45.7261 28.6069 45.7261 28.1575C45.7261 27.7391 45.4292 27.5366 44.8158 27.5366H44.3364V27.0097C44.3364 26.538 44.3138 26.4649 44.121 26.3128C43.8842 26.126 43.7333 26.1095 43.462 26.241ZM28.3962 31.0237C29.36 31.4346 30.8486 31.3958 31.8931 30.9325C32.4493 30.6858 32.5815 30.6861 33.1159 30.9357C34.207 31.4452 35.2708 33.004 35.4692 34.384C35.5015 34.6087 35.5836 34.8562 35.6516 34.9342C35.7196 35.0121 36.6219 35.5655 37.6568 36.164C39.6461 37.3145 39.8395 37.4788 39.8401 38.0188C39.8404 38.222 39.7682 38.3659 39.5625 38.5722C39.3042 38.8313 39.1258 38.8933 38.7522 38.8544C38.6707 38.8458 37.6995 38.3159 36.594 37.6766C35.1405 36.8362 34.5421 36.4461 34.4331 36.2683C34.3092 36.0661 34.2824 35.8511 34.2821 35.059C34.2818 34.2052 34.2632 34.077 34.1183 33.9317C33.8749 33.6875 33.4374 33.713 33.2251 33.9837C33.0766 34.173 33.0556 34.3132 33.0556 35.1166C33.0556 36.2609 33.1936 36.7702 33.6333 37.2486L33.9548 37.5985V39.3315V41.0646H30.0311H26.1073V39.3332V37.6018L26.3634 37.3093C26.8419 36.7627 26.921 36.4703 26.923 35.2413C26.9251 33.9301 26.8624 33.7677 26.3539 33.7677C26.1094 33.7677 25.9989 33.8168 25.8681 33.9837C25.7181 34.1749 25.6986 34.3124 25.6986 35.1808V36.1617L25.4329 36.422C25.2869 36.5652 24.3177 37.1703 23.2793 37.7666C21.7365 38.6527 21.3326 38.8509 21.0699 38.8509C20.6766 38.8509 20.4043 38.671 20.255 38.3124C20.1092 37.9623 20.1831 37.6064 20.4553 37.3473C20.5741 37.2342 21.4806 36.6759 22.4697 36.1064C23.4588 35.537 24.3324 34.9951 24.4111 34.9022C24.4899 34.8093 24.5542 34.6072 24.5542 34.4529C24.5542 33.5467 25.4861 31.905 26.37 31.2543C27.1508 30.6794 27.4963 30.64 28.3962 31.0237ZM11.3143 33.8724C11.1996 33.9307 11.0795 34.0909 11.0357 34.2442C10.9725 34.4652 10.9883 34.5535 11.1235 34.7351L11.2883 34.9565L13.4183 34.9783L15.5483 35.0002L15.7187 34.7829C15.9445 34.495 15.9341 34.2152 15.6886 33.969L15.488 33.7677L13.5019 33.7689C12.0791 33.7697 11.4588 33.7991 11.3143 33.8724ZM44.3883 33.9377C44.1184 34.1506 44.093 34.5894 44.3364 34.8335C44.4913 34.9889 44.6089 34.9975 46.5844 34.9975C48.5599 34.9975 48.6774 34.9889 48.8324 34.8335C49.0758 34.5894 49.0504 34.1506 48.7804 33.9377C48.576 33.7763 48.4644 33.7677 46.5844 33.7677C44.7043 33.7677 44.5928 33.7763 44.3883 33.9377ZM41.3936 43.0733V43.8522H29.9902H18.5868V43.0733V42.2944H29.9902H41.3936V43.0733Z" fill="white"></path><defs><linearGradient id="paint0_linear_68_741" x1="0" y1="30" x2="60" y2="29.5" gradientUnits="userSpaceOnUse"><stop stop-color="#D4AF37"></stop><stop offset="1" stop-color="#FF9933"></stop></linearGradient></defs></svg>