<svg xmlns="http://www.w3.org/2000/svg" width="60" height="60" viewBox="0 0 60 60" fill="none"><rect width="60" height="60" rx="30" fill="url(#paint0_linear_62_679)"></rect><path fill-rule="evenodd" clip-rule="evenodd" d="M24.7262 10.1787C24.3395 10.2812 23.7897 10.4709 23.5046 10.6002C22.0481 11.2605 20.7194 12.5813 20.0787 14.006C19.6893 14.8716 19.6291 14.7976 20.7232 14.7992C21.8338 14.8009 22.365 14.9252 23.295 15.4009C24.74 16.1401 25.8442 17.5463 26.2508 19.1652C26.4538 19.9736 26.4568 20.812 26.2577 21.114C25.7975 21.8119 24.7711 21.8056 24.3572 21.1024C24.2832 20.9766 24.1889 20.5787 24.1477 20.2182C24.0344 19.2273 23.8075 18.7213 23.2042 18.1138C22.4203 17.3245 21.6363 17.0241 20.3598 17.0241C18.9186 17.0241 17.6554 17.5773 16.5253 18.7035C15.7231 19.503 15.3966 20.0099 15.0545 20.9875C14.8494 21.5738 14.8102 21.8124 14.7813 22.6531C14.7421 23.7936 14.885 24.4713 15.3694 25.4408C15.5249 25.7524 15.6548 26.0072 15.6579 26.0072C15.661 26.0071 15.9278 25.7523 16.2507 25.4408C17.1914 24.5334 18.1939 24.1263 19.4927 24.1243C21.9451 24.1206 24.064 26.1878 24.0616 28.5818C24.0608 29.3717 23.6625 29.8332 22.9804 29.8342C22.299 29.8353 21.9338 29.4306 21.8108 28.538C21.6817 27.6006 21.2755 27.0043 20.5092 26.6272C20.084 26.4178 19.9273 26.3827 19.4273 26.3847C18.6661 26.3877 18.1611 26.5988 17.7068 27.104C17.2856 27.5724 17.1086 28.1009 17.1099 28.8868C17.1121 30.2896 17.8693 31.7387 19.0111 32.525L19.4527 32.829V33.4883C19.4527 33.8509 19.5084 34.3635 19.5765 34.6275C19.8398 35.6475 20.6461 36.8024 21.4491 37.3097C21.7591 37.5055 21.7963 37.5603 21.7963 37.8219L21.7965 38.1148H25.3124H28.8283L28.8085 24.2312L28.7888 10.3476L28.281 10.2017C27.9207 10.098 27.4326 10.0464 26.6012 10.0239C25.5533 9.99559 25.3551 10.0119 24.7262 10.1787ZM32.087 10.1203C31.7956 10.1827 31.4704 10.267 31.3644 10.3072L31.1716 10.3805V24.2476V38.1148H34.6873H38.203L38.2031 37.8219C38.2032 37.5603 38.2404 37.5055 38.5504 37.3097C39.3534 36.8024 40.1597 35.6475 40.4229 34.6275C40.491 34.3635 40.5467 33.8509 40.5467 33.4883V32.829L40.9883 32.525C42.1301 31.7387 42.8874 30.2896 42.8896 28.8868C42.892 27.3452 42.0116 26.3903 40.5825 26.3847C39.277 26.3796 38.3745 27.1887 38.1898 28.5301C38.0656 29.4307 37.7025 29.8353 37.019 29.8342C36.337 29.8332 35.9386 29.3717 35.9379 28.5818C35.9368 27.5254 36.3712 26.458 37.1361 25.6375C38.0815 24.6235 39.1978 24.1223 40.5068 24.1243C41.8055 24.1263 42.808 24.5334 43.7487 25.4408C44.0716 25.7523 44.3384 26.0071 44.3416 26.0072C44.3447 26.0072 44.477 25.748 44.6358 25.4312C45.0997 24.5051 45.2587 23.7362 45.218 22.6152C45.1891 21.8195 45.1463 21.5647 44.9445 20.9875C44.6031 20.0104 44.2767 19.5032 43.4741 18.7035C42.344 17.5773 41.0808 17.0241 39.6396 17.0241C38.3632 17.0241 37.5791 17.3245 36.7952 18.1138C36.1919 18.7213 35.965 19.2273 35.8518 20.2182C35.8106 20.5787 35.7163 20.9766 35.6422 21.1024C35.2283 21.8056 34.202 21.8119 33.7418 21.114C33.5427 20.812 33.5456 19.9736 33.7487 19.1652C34.1553 17.5463 35.2595 16.1401 36.7045 15.4009C37.6344 14.9252 38.1657 14.8009 39.2763 14.7992C40.3703 14.7976 40.3102 14.8716 39.9208 14.006C39.2802 12.5816 37.9513 11.2604 36.4958 10.6006C35.5814 10.186 34.6385 9.99293 33.564 10.0002C33.0431 10.0036 32.3785 10.0577 32.087 10.1203ZM10.9321 15.8531C10.3287 15.9572 10.0007 16.377 10 17.0466C9.99923 17.7283 10.2498 17.9485 11.9358 18.7469C13.2268 19.3583 13.3055 19.3847 13.7258 19.3499C14.1191 19.3173 14.1968 19.2798 14.4652 18.992C14.74 18.6975 14.7652 18.6334 14.7652 18.2276C14.7652 17.4648 14.6452 17.3491 13.0555 16.5769C11.5634 15.8522 11.3531 15.7806 10.9321 15.8531ZM48.5547 15.8559C48.4258 15.8841 47.7009 16.2082 46.9439 16.5763C45.3542 17.3492 45.2343 17.465 45.2343 18.2276C45.2343 18.6334 45.2595 18.6975 45.5342 18.992C45.8027 19.2798 45.8803 19.3173 46.2737 19.3499C46.6939 19.3847 46.7726 19.3583 48.0636 18.7469C49.7497 17.9485 50.0002 17.7283 49.9995 17.0466C49.9985 16.2049 49.3611 15.6796 48.5547 15.8559ZM10.8893 21.7021C10.3002 21.8542 10.0007 22.2593 10 22.9052C9.99946 23.3237 10.0223 23.3818 10.3063 23.6863L10.6132 24.0153H11.7964H12.9795L13.2864 23.6863C13.5683 23.3842 13.5933 23.3214 13.5933 22.9172C13.5933 22.3964 13.4357 22.0843 13.0533 21.8475C12.8337 21.7116 12.6406 21.6786 11.9595 21.6609C11.5045 21.6491 11.023 21.6676 10.8893 21.7021ZM47.2961 21.7021C46.707 21.8542 46.4075 22.2593 46.4067 22.9052C46.4062 23.3237 46.429 23.3818 46.7131 23.6863L47.02 24.0153H48.2031H49.3862L49.6931 23.6863C49.975 23.3842 50 23.3214 50 22.9172C50 22.3964 49.8424 22.0843 49.46 21.8475C49.2405 21.7116 49.0473 21.6786 48.3662 21.6609C47.9112 21.6491 47.4297 21.6676 47.2961 21.7021ZM13.3198 26.4004C13.1909 26.4281 12.4662 26.7521 11.7094 27.1203C10.0782 27.9139 9.9579 28.0352 10.0152 28.8276C10.045 29.2398 10.0829 29.3297 10.3312 29.578C10.5717 29.8185 10.677 29.8653 11.0459 29.8959C11.4572 29.93 11.5446 29.9004 12.8288 29.2922C14.5148 28.4938 14.7654 28.2737 14.7646 27.592C14.7637 26.7506 14.1283 26.2266 13.3198 26.4004ZM46.1669 26.3985C45.5635 26.5026 45.2356 26.9224 45.2349 27.592C45.2341 28.2737 45.4846 28.4938 47.1707 29.2922C48.4548 29.9004 48.5422 29.93 48.9536 29.8959C49.3225 29.8653 49.4277 29.8185 49.6683 29.578C49.9166 29.3297 49.9545 29.2398 49.9843 28.8276C50.0416 28.035 49.9212 27.9138 48.2901 27.1209C46.8019 26.3977 46.59 26.3256 46.1669 26.3985ZM21.7965 41.3981C21.7965 42.2156 21.8278 42.5091 21.9556 42.8884C22.2585 43.7872 22.8228 44.4521 23.6626 44.8997L24.1403 45.1542V46.1529C24.1403 46.93 24.1732 47.2471 24.2885 47.5823C24.6688 48.6876 25.5552 49.5416 26.6639 49.8708C27.2443 50.0431 32.7552 50.0431 33.3356 49.8708C34.4442 49.5416 35.3307 48.6876 35.711 47.5823C35.8263 47.2471 35.8592 46.93 35.8592 46.1529V45.1542L36.3368 44.8997C37.1767 44.4521 37.741 43.7872 38.0438 42.8884C38.1716 42.5091 38.203 42.2156 38.203 41.3981V40.3801H29.9997H21.7965V41.3981Z" fill="white"></path><defs><linearGradient id="paint0_linear_62_679" x1="0" y1="30" x2="60" y2="29.5" gradientUnits="userSpaceOnUse"><stop stop-color="#D4AF37"></stop><stop offset="1" stop-color="#FF9933"></stop></linearGradient></defs></svg>