<svg xmlns="http://www.w3.org/2000/svg" width="60" height="60" viewBox="0 0 60 60" fill="none"><rect width="60" height="60" rx="30" fill="url(#paint0_linear_68_748)"></rect><path fill-rule="evenodd" clip-rule="evenodd" d="M28.7455 15.0819C27.7978 15.29 27.2273 15.8496 26.9517 16.8411C26.7997 17.3879 26.7634 19.2253 26.892 19.866C27.0864 20.8349 27.5123 21.6982 28.0622 22.2378C28.3171 22.488 28.3263 22.5083 28.2592 22.6721C28.1617 22.9096 28.0082 22.9958 27.4725 23.1135C26.2075 23.3917 24.7927 24.1112 24.3161 24.7189C24.0548 25.0521 23.9787 25.2735 23.8157 26.1759C23.0578 30.3708 21.67 33.5679 19.8682 35.2699C19.3656 35.7446 18.9567 36.0085 18.3027 36.2801C17.6655 36.5448 17.3191 36.8328 17.1262 37.2583C17.002 37.5322 16.986 37.6367 17.0087 38.0235C17.0372 38.5089 17.1226 38.7264 17.4181 39.0662C17.6274 39.3069 18.1001 39.5545 18.352 39.5554C18.5064 39.5559 18.4934 39.5742 18.1591 39.828C17.5558 40.2859 17.1948 40.8643 17.0507 41.6039C16.8639 42.5627 17.5269 43.847 18.5135 44.4376C19.16 44.8245 19.6839 44.9586 20.6828 44.9926C21.6554 45.0258 22.2552 44.9609 25.1527 44.509C27.3647 44.164 27.9521 44.1161 29.971 44.1156C31.9945 44.1152 32.5751 44.1627 34.8182 44.5117C37.7049 44.961 38.2853 45.0238 39.2591 44.9924C40.2087 44.9619 40.6136 44.8685 41.2909 44.5237C42.1944 44.0638 42.944 42.9011 42.944 41.9594C42.944 41.1705 42.4455 40.2702 41.7356 39.7767L41.4651 39.5887L41.7063 39.547C42.1931 39.463 42.622 39.1356 42.867 38.6613C42.9232 38.5524 42.9762 38.2807 42.9913 38.0235C43.014 37.6367 42.998 37.5322 42.8738 37.2583C42.6806 36.8322 42.3345 36.5446 41.6973 36.2809C41.0632 36.0185 40.6465 35.7455 40.1003 35.2349C38.3682 33.6156 36.9387 30.3179 36.1908 26.2161C36.0167 25.2608 35.8424 24.881 35.3876 24.4654C34.8208 23.9474 33.6514 23.3964 32.5645 23.1351C31.933 22.9834 31.8303 22.9317 31.709 22.7042L31.6075 22.5139L31.855 22.2881C32.3706 21.8178 32.7931 21.0145 33.0314 20.0519C33.1392 19.616 33.158 19.3813 33.1546 18.5118C33.1503 17.3988 33.0674 16.8526 32.82 16.3071C32.543 15.6962 31.979 15.2671 31.2137 15.0849C30.7441 14.9731 29.2489 14.9713 28.7455 15.0819ZM34.7036 32.8992C35.7616 35.4662 37.2274 37.4172 38.9822 38.5942C39.2198 38.7536 39.3178 38.8451 39.2301 38.8256C39.1503 38.8078 38.6539 38.7281 38.1271 38.6485C37.6003 38.5689 37.0256 38.461 36.85 38.4087C35.8024 38.097 34.996 37.328 34.6379 36.2989C34.4282 35.6966 34.3538 35.1387 34.3542 34.1726C34.3545 33.3104 34.4068 32.2626 34.4475 32.3037C34.4576 32.3138 34.5728 32.5818 34.7036 32.8992ZM25.6136 33.6393C25.6754 35.009 25.5034 36.0005 25.0386 36.9543C24.7946 37.4547 24.3646 38.026 24.141 38.1469C23.826 38.3172 20.8838 38.8699 20.7911 38.7763C20.776 38.7611 20.8631 38.6882 20.9845 38.6143C21.3376 38.3993 22.1665 37.7164 22.4863 37.377C23.6136 36.1805 24.6302 34.5585 25.303 32.8823C25.4944 32.4058 25.5005 32.3981 25.5373 32.5893C25.558 32.6972 25.5924 33.1697 25.6136 33.6393Z" fill="white"></path><defs><linearGradient id="paint0_linear_68_748" x1="0" y1="30" x2="60" y2="29.5" gradientUnits="userSpaceOnUse"><stop stop-color="#D4AF37"></stop><stop offset="1" stop-color="#FF9933"></stop></linearGradient></defs></svg>