<svg xmlns="http://www.w3.org/2000/svg" width="100" height="100" viewBox="0 0 100 100" fill="none"><rect width="100" height="100" rx="50" fill="url(#paint0_linear_19_16)"></rect><path fill-rule="evenodd" clip-rule="evenodd" d="M53.8441 27.1173C52.669 28.2819 51.6818 29.3356 51.6505 29.4588C51.6191 29.5821 51.6225 29.7982 51.6581 29.939C51.7323 30.2333 55.8019 34.2654 56.1675 34.4069C56.3223 34.4668 56.5025 34.4561 56.6985 34.3753C56.8615 34.308 57.9244 33.3213 59.0605 32.1824C61.0407 30.1971 61.1259 30.0957 61.1259 29.7222C61.1259 29.3474 61.0428 29.2499 58.9477 27.1662C56.8478 25.078 56.7552 25 56.3751 25C55.9955 25 55.9011 25.079 53.8441 27.1173ZM46.7537 29.3546C46.6111 29.4965 46.5929 29.6477 46.643 30.2763C46.9959 34.704 50.773 39.2255 55.0435 40.3325C57.7273 41.0282 61.3518 40.7047 64.5684 39.4825C66.2911 38.8279 68.5817 37.455 69.7567 36.3729C70.2615 35.908 70.3363 35.7917 70.3363 35.4708C70.3363 34.9485 69.7739 34.1007 68.0501 32.0245C66.6485 30.3362 66.6765 30.3408 64.9803 31.5263C61.9903 33.6161 60.4663 34.4182 58.6231 34.8723C57.3548 35.1847 55.6435 35.186 54.4684 34.8755C52.1212 34.2552 49.3287 32.1762 47.7455 29.87C47.256 29.1571 47.0564 29.0533 46.7537 29.3546ZM40.1523 35.1731C38.3696 35.358 36.1949 35.9643 34.2742 36.8119C32.866 37.4333 31.2363 38.4458 30.4372 39.196C29.823 39.7725 29.8831 39.9734 31.4404 42.5476C32.9376 45.0225 32.9541 45.0466 33.263 45.2104C33.6433 45.412 34.0345 45.3386 34.9538 44.8934C38.3612 43.243 41.1152 42.3371 42.7249 42.3371C44.2898 42.3371 45.7117 43.175 46.5164 44.5712C46.9511 45.3256 46.9262 45.9137 46.427 46.6808C45.0148 48.851 42.5422 49.6717 38.4922 49.3146C37.1358 49.1949 37.0657 49.1979 36.8125 49.3855C36.3564 49.7234 36.3336 49.972 36.6246 51.4349C36.927 52.9553 37.0957 53.5033 37.5198 54.3429C38.0753 55.4428 38.8007 56.2058 39.852 56.7962C40.4254 57.1182 40.4889 57.1313 41.2536 57.0881C44.1327 56.9251 45.373 57.242 46.501 58.4291C47.3601 59.3332 48.0134 60.9904 48.0095 62.2558C48.0032 64.2641 46.803 66.3545 45.1008 67.3224C42.6607 68.7098 38.3609 68.8919 35.0409 67.7482C33.2882 67.1445 31.8229 66.2707 30.8278 65.2358C29.3891 63.7397 28.6442 62.1785 26.8189 56.8345C26.3509 55.4645 25.9256 54.2923 25.8739 54.2298C25.6942 54.0129 25.3768 54.0037 25.1701 54.2094C24.9809 54.3977 24.973 54.4944 25.0336 55.871C25.311 62.1769 26.7649 66.4716 29.93 70.3345C32.1647 73.0618 34.8066 74.8196 37.8998 75.6367C38.9124 75.9043 39.262 75.9468 40.8031 75.9895C44.084 76.0806 46.0862 75.585 47.9611 74.2177C48.7118 73.6701 50.1217 72.148 50.7538 71.2025C53.1133 67.6731 53.4811 63.7996 51.9066 59.0614C51.6912 58.4136 51.5151 57.7938 51.5151 57.6844C51.5151 57.5749 51.6465 57.3389 51.807 57.1599L52.0989 56.8345L53.9844 56.7751C56.0779 56.7092 56.5565 56.5955 57.5899 55.9186C58.3135 55.4448 58.5991 55.1028 60.0711 52.9486C62.8251 48.9179 64.0972 47.3498 65.0755 46.7792C66.2129 46.1158 67.6367 46.0517 68.7811 46.6124C70.1071 47.262 70.8055 48.2399 71.278 50.1078C72.0219 53.0493 71.7848 56.101 70.6296 58.4544C69.1425 61.484 66.0514 63.6258 62.8779 63.8253C60.1927 63.994 58.1406 62.6971 56.7163 59.9313C56.3184 59.1587 56.1128 58.9695 55.8501 59.1344C55.56 59.3165 55.4895 59.7666 55.4848 61.4677C55.4814 62.6697 55.5287 63.3528 55.6608 64.0083C56.508 68.2142 58.5846 70.7904 61.8212 71.6507C62.8487 71.9238 64.8386 71.9421 66.0315 71.6895C67.9847 71.2759 69.3233 70.6118 70.5686 69.4386C71.8901 68.1937 72.8754 66.6149 73.6777 64.4569C75.0684 60.7161 75.3998 55.4239 74.492 51.454C73.8986 48.8593 72.4445 46.0344 70.7826 44.248C68.7305 42.042 66.4422 41.1695 63.4357 41.4467C61.2036 41.6525 59.4756 42.3409 58.1886 43.5372C57.329 44.3363 56.8238 45.0441 55.419 47.4187C53.4945 50.6719 52.232 52.5141 51.4725 53.1778C50.6602 53.8877 49.6248 54.1421 48.513 53.9047C47.9722 53.7894 45.4333 52.841 45.2701 52.6935C45.2217 52.6497 45.447 52.4467 45.7707 52.2424C47.2115 51.3331 48.2195 50.1419 49.2439 48.1384C50.1826 46.302 50.5347 44.987 50.5302 43.3335C50.5265 41.9577 50.2214 40.7656 49.5102 39.3479C47.8691 36.0768 44.7696 34.694 40.1523 35.1731Z" fill="white"></path><defs><linearGradient id="paint0_linear_19_16" x1="0" y1="50" x2="100" y2="50" gradientUnits="userSpaceOnUse"><stop stop-color="#D4AF37"></stop><stop offset="1" stop-color="#FF9933"></stop></linearGradient></defs></svg>