<svg xmlns="http://www.w3.org/2000/svg" width="60" height="60" viewBox="0 0 60 60" fill="none"><rect width="60" height="60" rx="30" fill="url(#paint0_linear_68_724)"></rect><path fill-rule="evenodd" clip-rule="evenodd" d="M29.797 10.0471C28.5412 10.3127 27.4592 11.361 27.1868 12.5764C27.0838 13.0357 27.08 13.0394 26.3654 13.3854C25.8603 13.63 25.4732 13.9072 25.0595 14.3212L24.4716 14.9094L18.8335 14.9357C13.6923 14.9598 13.1699 14.976 12.9053 15.1209C12.2862 15.4599 11.9631 16.1882 12.1402 16.846C12.2762 17.3513 12.7186 17.8308 13.158 17.9492C13.3554 18.0023 13.5168 18.0648 13.5168 18.0878C13.5168 18.1109 12.3249 20.0207 10.8681 22.332C7.98755 26.9022 7.91687 27.022 7.91742 27.3333C7.91788 27.61 8.22137 28.1013 8.4762 28.2378C8.76886 28.3945 9.37649 28.2859 9.61911 28.0336C9.73203 27.9161 10.8468 26.1875 12.0965 24.1922C13.3462 22.197 14.4185 20.5104 14.4794 20.4441C14.5679 20.348 15.0582 21.067 16.9217 24.026C18.2041 26.0622 19.3568 27.8444 19.4833 27.9864C20.2104 28.8026 21.5374 27.9355 21.1032 26.9279C21.0317 26.7619 19.7533 24.694 18.2624 22.3324L15.5515 18.0388H22.0618H28.572V32.2744V46.51H26.8471C24.8607 46.51 24.3254 46.6086 23.5622 47.1155C22.7336 47.6657 22.2009 48.5453 22.0805 49.5619L22.0286 50H30.4871H38.9454L38.9443 49.7474C38.9404 48.8353 38.3009 47.7038 37.4702 47.1393C36.693 46.6111 36.1599 46.51 34.1526 46.51H32.4276V32.2744V18.0388H38.9379H45.4482L42.7373 22.3324C41.2464 24.694 39.968 26.7619 39.8965 26.9279C39.7971 27.1584 39.7886 27.3123 39.8604 27.5792C39.9854 28.0435 40.228 28.2452 40.7293 28.3017C41.1072 28.3443 41.1705 28.3212 41.4484 28.0383C41.6159 27.8678 42.8005 26.0625 44.0807 24.0268C45.4215 21.8951 46.4428 20.3597 46.4894 20.4063C46.5338 20.4508 47.6344 22.1784 48.935 24.2454C51.5463 28.3951 51.5953 28.4536 52.3126 28.2748C52.7039 28.1773 53.0826 27.7188 53.0826 27.3426C53.0826 27.0206 53.0241 26.9211 50.1315 22.332C48.6748 20.0207 47.4828 18.1109 47.4828 18.0878C47.4828 18.0648 47.6443 18.0023 47.8417 17.9492C48.2811 17.8308 48.7235 17.3513 48.8595 16.846C49.0365 16.1882 48.7135 15.4599 48.0944 15.1209C47.8297 14.976 47.3074 14.9598 42.1661 14.9357L36.5281 14.9094L35.9402 14.3212C35.5264 13.9072 35.1394 13.63 34.6343 13.3854C33.9197 13.0394 33.9159 13.0357 33.8129 12.5764C33.5024 11.1916 32.2368 10.1231 30.7752 10.0118C30.4471 9.98685 30.0069 10.0027 29.797 10.0471ZM7.15098 29.4116C6.9537 29.6296 6.94902 30.6251 7.14125 31.4478C7.68461 33.7723 9.0953 35.5702 11.176 36.5899C12.3236 37.1523 12.9392 37.3164 14.1594 37.3855C18.27 37.6181 21.8367 34.4936 22.1179 30.4139C22.2079 29.107 23.0884 29.2436 14.5725 29.2436C7.64643 29.2436 7.29575 29.2515 7.15098 29.4116ZM38.992 29.4266C38.8488 29.5849 38.8339 29.7185 38.8818 30.4139C38.9544 31.4683 39.2265 32.4059 39.7548 33.4224C40.0997 34.0861 40.3563 34.4209 41.0568 35.1215C42.296 36.3608 43.4446 36.9799 45.0772 37.2888C46.0103 37.4653 47.47 37.4192 48.3549 37.1853C49.2086 36.9596 50.6754 36.1971 51.3169 35.6454C52.947 34.2435 53.9981 32.1101 54 30.1992C54.0005 29.684 53.9655 29.5157 53.8327 29.3956C53.6795 29.2568 53.032 29.2436 46.4112 29.2436C39.2828 29.2436 39.1547 29.2467 38.992 29.4266Z" fill="white"></path><defs><linearGradient id="paint0_linear_68_724" x1="0" y1="30" x2="60" y2="29.5" gradientUnits="userSpaceOnUse"><stop stop-color="#D4AF37"></stop><stop offset="1" stop-color="#FF9933"></stop></linearGradient></defs></svg>