<svg xmlns="http://www.w3.org/2000/svg" width="60" height="60" viewBox="0 0 60 60" fill="none"><rect width="60" height="60" rx="30" fill="url(#paint0_linear_61_659)"></rect><path fill-rule="evenodd" clip-rule="evenodd" d="M29.7602 15.0376C29.5573 15.1193 29.4947 15.4202 29.4947 16.3138C29.4947 17.4473 29.5739 17.632 30.0597 17.632C30.5455 17.632 30.6246 17.4473 30.6246 16.3138C30.6246 15.1671 30.5447 14.988 30.0388 15.0006C29.9295 15.0033 29.8041 15.02 29.7602 15.0376ZM26.0424 16.0497C25.956 16.0629 25.8219 16.1327 25.7442 16.2047C25.501 16.4303 25.5562 16.6719 26.0484 17.5355C26.2934 17.9654 26.531 18.348 26.5763 18.3856C26.6217 18.4233 26.7589 18.4703 26.8812 18.4902C27.0707 18.5209 27.132 18.4979 27.2949 18.335C27.4138 18.2161 27.4861 18.0796 27.4861 17.9739C27.4861 17.7924 26.6881 16.3401 26.4992 16.1778C26.3545 16.0534 26.2359 16.0202 26.0424 16.0497ZM33.7888 16.0659C33.6136 16.1314 33.5146 16.2663 33.0513 17.072C32.8135 17.4855 32.6333 17.8732 32.6333 17.9713C32.6333 18.0799 32.7041 18.2147 32.8245 18.335C32.9874 18.4979 33.0487 18.5209 33.2381 18.4902C33.3604 18.4703 33.4967 18.424 33.541 18.3873C33.5852 18.3505 33.8228 17.9707 34.069 17.5432C34.5651 16.6814 34.6223 16.432 34.3752 16.2072C34.214 16.0606 33.9643 16.0004 33.7888 16.0659ZM19.2004 18.7042C18.8548 18.8606 18.5996 19.0952 18.4423 19.4008C18.3771 19.5278 17.4416 22.1689 16.3636 25.2699L14.4036 30.908L14.401 31.5671C14.3987 32.1584 14.4162 32.2642 14.5715 32.5958C14.6667 32.7991 15.2396 33.6378 15.8446 34.4596C16.4495 35.2814 17.0071 36.0896 17.0838 36.2555C17.2039 36.5157 17.2216 36.6526 17.2122 37.2478C17.2061 37.6276 17.192 38.0079 17.1808 38.0928C17.1605 38.2461 17.1905 38.2555 20.7069 39.2038C22.6574 39.7298 24.298 40.1616 24.3526 40.1635C24.4294 40.1659 24.5354 39.8524 24.8233 38.77C25.2521 37.1584 25.2923 36.6568 25.0432 36.0238C24.9684 35.8339 23.9975 33.8708 22.8855 31.6612C21.0195 27.9533 20.8433 27.6286 20.5984 27.4448C19.8387 26.8744 18.7285 27.0839 18.2289 27.892C18.0701 28.1488 18.0356 28.2769 18.0174 28.6758L17.9957 29.1526L19.3199 31.8047C20.0482 33.2633 20.6441 34.4966 20.6441 34.5452C20.6441 34.6859 20.3233 34.902 20.1454 34.8813C20.0012 34.8644 19.8453 34.5845 18.604 32.1136L17.2231 29.3647V28.754C17.2231 28.1912 17.2391 28.1107 17.4282 27.7268C17.777 27.0184 18.643 26.3571 19.2221 26.3571C19.3005 26.3571 19.4086 26.3218 19.4622 26.2787C19.5158 26.2355 19.9875 24.9291 20.5104 23.3755C21.5184 20.3809 21.5585 20.2081 21.3838 19.6166C21.2819 19.2718 20.7619 18.7518 20.4171 18.6499C20.0286 18.5351 19.5242 18.5576 19.2004 18.7042ZM39.6636 18.6556C39.3555 18.7527 38.83 19.2968 38.7356 19.6166C38.5613 20.2065 38.6021 20.3819 39.6097 23.3755C40.1327 24.9291 40.6042 26.2355 40.6576 26.2787C40.711 26.3218 40.8188 26.3571 40.8973 26.3571C41.4763 26.3571 42.3424 27.0184 42.6911 27.7268C42.8802 28.1107 42.8963 28.1912 42.8963 28.754V29.3647L41.5153 32.1136C40.274 34.5845 40.1182 34.8644 39.974 34.8813C39.796 34.902 39.4753 34.6859 39.4753 34.5452C39.4753 34.4966 40.0711 33.2633 40.7994 31.8047L42.1236 29.1526L42.1019 28.6758C42.0838 28.2769 42.0492 28.1488 41.8904 27.892C41.3908 27.0839 40.2807 26.8744 39.5209 27.4448C39.276 27.6286 39.0998 27.9533 37.2339 31.6612C36.1219 33.8708 35.1507 35.8339 35.0755 36.0238C34.8263 36.6541 34.8666 37.1562 35.296 38.77C35.5004 39.5382 35.6981 40.1672 35.7354 40.1679C35.7727 40.1685 37.4212 39.7378 39.3988 39.2107L42.9943 38.2522L42.9453 38.0011C42.9183 37.863 42.8969 37.4816 42.8976 37.1537C42.8988 36.675 42.9263 36.4978 43.037 36.2555C43.1128 36.0895 43.6373 35.3269 44.2023 34.5607C44.7674 33.7946 45.303 33.0548 45.3924 32.9167C45.6435 32.5291 45.7685 32.0055 45.7426 31.4507C45.7221 31.0111 45.5518 30.4844 43.7147 25.1765C41.5016 18.7822 41.6061 19.0263 40.9539 18.7226C40.604 18.5597 40.0579 18.5313 39.6636 18.6556ZM22.9067 19.0632C22.6727 19.2972 22.6542 19.5663 22.8567 19.7886C23.1026 20.0584 24.4159 20.7705 24.6676 20.7705C24.9737 20.7705 25.1636 20.5625 25.1636 20.227C25.1636 19.9152 25.1374 19.891 24.2233 19.3579C23.334 18.8391 23.1679 18.802 22.9067 19.0632ZM36.4927 19.0207C36.0236 19.2705 35.1757 19.7791 35.0656 19.8767C34.8977 20.0254 34.9181 20.4622 35.101 20.6341C35.3499 20.8678 35.5972 20.815 36.3981 20.3571C36.7959 20.1297 37.1849 19.8739 37.2626 19.7886C37.4625 19.5693 37.4465 19.2971 37.2204 19.0709C37.0024 18.8529 36.83 18.841 36.4927 19.0207ZM26.011 22.465C25.2136 22.5535 24.5212 22.9138 23.9225 23.5518C22.8979 24.6435 22.752 26.4324 23.5827 27.7179C23.6903 27.8843 25.1346 29.3758 26.7923 31.0321C29.7733 34.0107 29.809 34.0437 30.0597 34.0437C30.3103 34.0437 30.3463 34.0105 33.2967 31.0635C34.984 29.3781 36.3878 27.9238 36.5276 27.7161C37.3687 26.4673 37.2241 24.6464 36.1968 23.5518C35.5089 22.8187 34.7191 22.4633 33.7569 22.4537C32.5733 22.4419 32.0219 22.7025 30.8914 23.8079L30.0597 24.6213L29.228 23.8079C28.5848 23.179 28.3029 22.9493 27.9844 22.7946C27.3818 22.5021 26.7014 22.3884 26.011 22.465ZM14.9513 38.6608C14.7246 38.7521 14.6399 38.9515 14.3079 40.177C13.936 41.5494 13.9179 41.7821 14.163 42.0438C14.3233 42.2151 14.7047 42.3267 19.524 43.6141C22.3777 44.3763 24.8161 45 24.9428 45C25.3603 45 25.4744 44.8082 25.8198 43.5249C26.2042 42.0969 26.2344 41.8202 26.0318 41.5847C25.8991 41.4305 25.6573 41.3505 23.9065 40.8817C22.8199 40.5909 20.4573 39.9578 18.6563 39.4751C16.8553 38.9923 15.3159 38.5992 15.2353 38.6014C15.1548 38.6035 15.027 38.6303 14.9513 38.6608ZM39.4439 40.0125C33.5509 41.599 33.911 41.4633 33.9666 42.0769C33.9825 42.2518 34.1323 42.9035 34.2995 43.5249C34.6459 44.8117 34.7584 45 35.1808 45C35.3098 45 37.7483 44.3769 40.5996 43.6153C45.434 42.3242 45.7954 42.2182 45.9563 42.0451C46.086 41.9057 46.129 41.7959 46.129 41.604C46.129 41.3019 45.5358 39.0696 45.4002 38.8613C45.2923 38.6958 45.0656 38.5946 44.8224 38.6037C44.7297 38.6071 42.3094 39.2411 39.4439 40.0125Z" fill="white"></path><defs><linearGradient id="paint0_linear_61_659" x1="0" y1="30" x2="60" y2="29.5" gradientUnits="userSpaceOnUse"><stop stop-color="#D4AF37"></stop><stop offset="1" stop-color="#FF9933"></stop></linearGradient></defs></svg>