<svg width="773" height="948" viewBox="0 0 773 948" fill="none" xmlns="http://www.w3.org/2000/svg">
<path d="M395.528 190.921C400.902 190.921 405.258 186.565 405.258 181.191C405.258 175.817 400.902 171.461 395.528 171.461C390.154 171.461 385.798 175.817 385.798 181.191C385.798 186.565 390.154 190.921 395.528 190.921Z" fill="url(#paint0_linear_132_1732)"/>
<path d="M369.541 220.238C369.84 220.704 364.969 223.751 357.676 223.904C343.611 224.201 334.99 217.196 335.446 220.83C336.033 225.505 348.913 235.791 361.811 239.257C372.81 242.212 376.436 237.492 374.481 230.347C373.489 226.726 371.557 223.372 369.541 220.238Z" fill="url(#paint1_linear_132_1732)"/>
<path d="M360.583 191.899C342.691 186.701 329.646 194.135 321.948 204.404C320.607 208.947 329.306 204.79 331.364 204.018C354.367 195.392 373.312 207.232 380.923 223.469C383.759 229.519 385.871 237.719 387.265 246.508C391.991 213.105 387.499 199.718 360.583 191.899Z" fill="url(#paint2_linear_132_1732)"/>
<path d="M770.227 837.087C765.34 800.08 731.415 796.842 701.703 785.372C662.594 770.266 660.26 806.891 596.975 814.798C544.369 821.368 516.403 851.741 487.216 865.756C561.811 794.315 559.052 827.733 643.666 784.027C648.518 782.248 652.488 780.234 655.099 777.838C651.929 777.234 631.786 778.662 630.716 767.695C629.05 750.557 687.081 745.898 631.794 498.187C621.778 453.296 599.846 423.273 564.747 406.392C503.803 377.091 441.724 371.376 464.618 316.103C468.525 319.214 468.196 324.742 469.914 333.289C477.046 368.76 508.053 362.446 502.557 340.633C499.401 328.102 483.343 298.881 519.564 237.608C537.549 207.223 505.5 210.79 498.632 214.387C510.733 159.113 517.333 107.451 468.195 88.8033C432.191 75.1463 463.138 15.4493 417.797 3.4323C409.19 -3.0417 384.667 -0.195728 372.604 10.6053C354.561 28.4433 363.901 47.8083 348.674 77.5113C344.048 86.5353 332.472 91.6983 324.391 95.8833C307.208 104.781 297.903 118.833 298.047 120.327C286.263 143.123 291.42 175.265 298.699 205.813C291.595 204.129 278.839 208.515 276.791 216.585C271.871 236.008 316.8 273.082 291.606 340.002C287.548 350.79 292.692 360.359 302.772 363.808C329.454 372.963 328.809 322.759 337.973 325.303C343.323 326.728 331.177 359.929 368.461 390.019C405.746 420.109 458.976 405.796 471.858 454.859C476.612 472.962 474.491 497.285 461.042 510.503C402.396 568.149 321.692 528.365 286.667 664.572C278.496 696.345 285.85 677.619 281.362 717.721C223.312 689.007 218.683 685.364 234.492 616.351C251.403 649.584 249.164 679.929 273.504 704.112C259.064 578.948 301.139 572.391 236.348 480.056C232.052 473.93 230.206 469.234 224.08 476.936C203.475 502.842 221.417 554.967 197.475 627.883C188.105 656.415 180.79 653.86 188.711 667.336C210.503 704.384 254.779 729.667 281.711 738.057C281.788 738.567 281.828 739.084 281.916 739.592C268.262 737.708 200.659 741.694 159.139 715.797C146.742 672.243 155.335 617.985 162.991 568.129C170.038 522.352 177.687 467.899 187.517 449.797C194.093 437.697 204.822 431.672 216.739 425.654C236.156 415.851 259.289 412.587 279.34 402.431C285.188 399.469 291.131 396.226 295.76 391.498C298.04 389.167 299.958 386.455 301.097 383.385C302.018 380.906 303.872 375.684 299.351 376.193C297.897 376.357 297.773 377.37 297.346 378.596C293.58 389.417 281.795 395.27 271.887 399.284C261.311 403.57 250.191 406.093 239.44 409.838C218.918 416.987 192.105 426.051 182.983 447.58C157.246 508.317 142.473 644.598 146.059 694.883C149.165 738.495 158.213 754.067 181.421 775.224C182.085 775.829 182.784 776.437 183.482 777.042C181.676 777.163 179.887 777.326 178.417 777.245C169.937 776.78 161.709 775.611 153.167 775.63C141.913 775.656 129.44 774.256 117.594 774.689C93.7952 772.02 38.4652 772.014 13.8942 794.46C-5.89476 812.538 -4.31779 883.165 17.1712 898.994C44.5012 947.546 207.57 961.696 303.083 915.797C382.031 912.234 385.294 862.227 390.921 847.73C398.591 874.725 384.547 894.789 363.574 912.533C385.85 913.379 418.93 914.995 464.702 915.878C475.353 918.678 613.801 968.961 696.947 937.214C757.325 914.16 778.995 903.479 770.227 837.087ZM581.441 622.447C583.03 637.756 582.633 653.249 580.24 668.509C577.885 683.796 572.29 698.708 564.541 712.502C567.681 697.435 569.86 682.679 570.554 667.806C570.912 652.949 570.785 638.122 569.032 623.315C567.544 608.504 565.047 593.742 562.12 578.97C558.968 564.235 555.701 549.432 551.619 534.581C568.73 561.702 577.897 591.917 581.441 622.447ZM443.555 220.531C440.405 224.366 434.192 223.431 414.541 223.431C414.009 218.261 417.523 212.408 420.266 209.709C432.158 198.017 450.238 212.416 443.555 220.531ZM400.233 271.437C395.648 275.714 386.206 275.467 394.055 290.921C388.633 295.47 376.212 294.626 369.136 293.035C371.897 303.021 392.991 303.976 397.636 302.66C392.159 314.687 374.18 306.724 381.933 316.892C387.037 323.586 396.343 326.578 403.813 328.5C380.488 350.158 344.49 334.935 331.46 308.424C322.332 289.868 320.325 307.531 318.748 317.413C316.909 328.942 308.099 333.351 309.917 311.526C310.654 302.695 313.664 290.211 296.917 243.824C285.291 211.333 299.942 211.936 301.905 218.313C305.731 233.847 307.935 241.466 310.453 254.362C310.421 254.427 310.445 254.558 310.479 254.497C310.988 257.042 311.751 259.388 313.002 260.821C313.155 251.648 313.928 186.563 313.914 185.675C313.36 148.601 347.694 128.045 388.904 149.63C430.114 171.217 445.42 169.956 446.303 170.235C370.098 206.211 416.221 256.533 400.233 271.437ZM272.152 895.65C302.514 883.877 320.084 872.95 339.184 847.95C343.575 842.193 349.612 847.026 349.903 849.866C350.872 859.24 314.401 889.762 272.152 895.65ZM557.353 864.385C631.843 820.897 659.449 838.288 708.293 804.506C655.172 853.251 631.307 830.007 557.353 864.385Z" fill="url(#paint3_linear_132_1732)"/>
<defs>
<linearGradient id="paint0_linear_132_1732" x1="385.798" y1="181.191" x2="405.258" y2="181.029" gradientUnits="userSpaceOnUse">
<stop stop-color="#D4AF37"/>
<stop offset="1" stop-color="#FF9933"/>
</linearGradient>
<linearGradient id="paint1_linear_132_1732" x1="335.429" y1="229.967" x2="374.978" y2="229.327" gradientUnits="userSpaceOnUse">
<stop stop-color="#D4AF37"/>
<stop offset="1" stop-color="#FF9933"/>
</linearGradient>
<linearGradient id="paint2_linear_132_1732" x1="321.808" y1="218.353" x2="388.903" y2="217.687" gradientUnits="userSpaceOnUse">
<stop stop-color="#D4AF37"/>
<stop offset="1" stop-color="#FF9933"/>
</linearGradient>
<linearGradient id="paint3_linear_132_1732" x1="-6.78811e-10" y1="473.844" x2="772.116" y2="468.602" gradientUnits="userSpaceOnUse">
<stop stop-color="#D4AF37"/>
<stop offset="1" stop-color="#FF9933"/>
</linearGradient>
</defs>
</svg>
