<svg width="19" height="20" viewBox="0 0 19 20" fill="none" xmlns="http://www.w3.org/2000/svg">
<path fill-rule="evenodd" clip-rule="evenodd" d="M8.65208 6.81177e-06L8.65419 0L9.82585 2.82721e-06L9.82797 2.8274e-06C10.2596 0.00128215 10.6808 0.132893 11.0364 0.377603C11.3919 0.622215 11.6652 0.968427 11.8206 1.37093L12.3428 2.71879L14.0202 3.67082L15.461 3.45103L15.4726 3.44926C15.8937 3.39212 16.3222 3.46152 16.7037 3.64847C17.0853 3.83543 17.4026 4.1316 17.6154 4.49935L17.6174 4.50276L18.187 5.4994C18.4049 5.87202 18.5052 6.30182 18.4747 6.73247C18.444 7.16477 18.2832 7.57765 18.013 7.91657L18.0105 7.91983L17.0973 9.05213V10.9479L18.0105 12.0802L18.013 12.0834C18.2832 12.4224 18.444 12.8352 18.4747 13.2675C18.5052 13.6982 18.4049 14.128 18.1869 14.5007L17.6174 15.4973L17.6154 15.5007C17.4026 15.8684 17.0853 16.1646 16.7037 16.3516C16.3222 16.5384 15.8937 16.6079 15.4726 16.5507L15.461 16.549L14.0202 16.3291L12.3428 17.2811L11.8208 18.6286C11.6654 19.0311 11.392 19.3777 11.0364 19.6224C10.6808 19.8671 10.2596 19.9987 9.82797 20H9.82585H8.65419H8.65208C8.22042 19.9987 7.79922 19.8671 7.44362 19.6224C7.08809 19.3777 6.81474 19.0314 6.65932 18.6289L6.13728 17.2811L4.4599 16.3291L3.01905 16.549L3.00742 16.5507C2.5864 16.6079 2.15785 16.5384 1.77631 16.3516C1.39475 16.1646 1.0774 15.8684 0.864553 15.5007L0.862581 15.4973L0.293123 14.5007C0.0751857 14.128 -0.02514 13.6982 0.00535139 13.2675C0.0359571 12.8352 0.196924 12.4224 0.467008 12.0834L0.469607 12.0802L1.38277 10.9479V9.05213L0.469617 7.91983L0.467 7.91659C0.196916 7.57766 0.0359571 7.16477 0.00535139 6.73247C-0.02514 6.30179 0.0751871 5.87197 0.293127 5.49933L0.862596 4.50276L0.864553 4.49935C1.0774 4.1316 1.39475 3.83543 1.77631 3.64847C2.15785 3.4615 2.58638 3.3922 3.00741 3.44935L3.01907 3.45093L4.4599 3.67082L6.13728 2.71879L6.65922 1.37143C6.81465 0.968987 7.08821 0.622185 7.44362 0.377605C7.79922 0.132893 8.22042 0.00128197 8.65208 6.81177e-06ZM4.24002 11.9643C3.74691 11.9643 3.34717 12.364 3.34717 12.8571C3.34717 13.3503 3.74691 13.75 4.24002 13.75H14.24C14.7332 13.75 15.1329 13.3503 15.1329 12.8571C15.1329 12.364 14.7332 11.9643 14.24 11.9643H13.5257V9.28572C13.5257 8.89123 13.2059 8.57143 12.8115 8.57143H10.6686C10.2741 8.57143 9.95431 8.89123 9.95431 9.28572V11.9643H8.52574V7.14286C8.52574 6.74837 8.20594 6.42857 7.81145 6.42857H5.66859C5.27411 6.42857 4.95431 6.74837 4.95431 7.14286V11.9643H4.24002Z" fill="#4F2FD9"/>
</svg>
